<svg id="visual" viewBox="0 0 900 600" width="900" height="600" xmlns="http://www.w3.org/2000/svg" xmlns:xlink="http://www.w3.org/1999/xlink" version="1.1"><rect width="900" height="600" fill="#001122"></rect><g><g transform="translate(33 35)"><path d="M105.1 -31.1C117.8 5 97 55 61 80.4C24.9 105.7 -26.5 106.5 -61.2 81.8C-95.9 57.2 -113.9 7.2 -100.9 -29.3C-87.9 -65.7 -44 -88.5 1.1 -88.9C46.2 -89.2 92.4 -67.1 105.1 -31.1Z" stroke="#715DF2" fill="none" stroke-width="20"></path></g><g transform="translate(200 490)"><path d="M71.7 -22.2C80.3 3.1 65.9 37 41 54.7C16 72.5 -19.5 74 -43.4 57.2C-67.4 40.4 -79.8 5.2 -70.6 -20.9C-61.5 -47 -30.7 -64 0.4 -64.2C31.6 -64.3 63.2 -47.5 71.7 -22.2Z" stroke="#715DF2" fill="none" stroke-width="20"></path></g><g transform="translate(891 276)"><path d="M97.4 -29.5C110.4 8.3 94.1 57.8 62.3 79.4C30.5 100.9 -16.9 94.7 -48.4 70.8C-80 46.9 -95.7 5.3 -85 -29.3C-74.3 -64 -37.1 -91.7 2.5 -92.5C42.2 -93.3 84.4 -67.2 97.4 -29.5Z" stroke="#715DF2" fill="none" stroke-width="20"></path></g><g transform="translate(399 12)"><path d="M44.2 -14.8C50 3.4 42.3 25.6 25.9 38.1C9.4 50.7 -15.9 53.6 -30.2 42.9C-44.6 32.1 -48.1 7.7 -41.2 -12C-34.4 -31.6 -17.2 -46.4 1 -46.8C19.2 -47.1 38.4 -32.9 44.2 -14.8Z" stroke="#715DF2" fill="none" stroke-width="20"></path></g><g transform="translate(745 539)"><path d="M73.8 -24.6C83.1 4.8 69.6 41 43.5 59.9C17.5 78.8 -21.1 80.5 -46.4 62.4C-71.6 44.4 -83.6 6.7 -73.7 -23.6C-63.7 -53.8 -31.9 -76.5 0.2 -76.6C32.2 -76.6 64.4 -54 73.8 -24.6Z" stroke="#715DF2" fill="none" stroke-width="20"></path></g></g></svg>